<svg xmlns="http://www.w3.org/2000/svg" viewBox="0 0 2803.03 1257.44"><defs><style>.cls-1{fill:#e8e8f0;}.cls-2{fill:#8a87a3;}</style></defs><g id="Layer_2" data-name="Layer 2"><g id="Layer_1-2" data-name="Layer 1"><path class="cls-1" d="M1552.13,593.07a64.34,64.34,0,0,1-20.44,3.3A56.56,56.56,0,0,1,1498,585.84q-14.79-10.55-19.5-30.05l-44.67,6.62q3.45,23,16.44,39.55a84.49,84.49,0,0,0,33.18,25.47q20.2,8.9,45.37,8.89a128.75,128.75,0,0,0,33.58-4.4,94.62,94.62,0,0,0,29.17-13.29,66.3,66.3,0,0,0,20.51-22.5q7.64-13.59,7.63-31.84,0-17.13-6.36-28.31a54.45,54.45,0,0,0-16.2-18,88.53,88.53,0,0,0-20.52-10.69q-10.71-3.86-19.5-6.21l-39.32-10.69a113.43,113.43,0,0,1-14.15-4.72,33.56,33.56,0,0,1-11.49-7.48c-3-3.09-4.55-7.09-4.55-12a19.33,19.33,0,0,1,5.57-13.83,35.87,35.87,0,0,1,14.47-8.89,52.77,52.77,0,0,1,19-2.75,54.3,54.3,0,0,1,19.58,4.25,44.54,44.54,0,0,1,16.12,11.47,41.1,41.1,0,0,1,9.28,18.56l46.23-7.87q-5.5-21.22-17.92-35.92a80.46,80.46,0,0,0-30.84-22.42q-18.39-7.71-41.82-8-23.28-.17-42.47,7.22t-30.66,22.5q-11.49,15.1-11.49,37.9,0,16.2,5.43,26.81a50.62,50.62,0,0,0,13.61,17.07,67.42,67.42,0,0,0,16.9,9.89q8.73,3.48,15.33,5.37l58.82,17.29a52.88,52.88,0,0,1,10.92,4.56,25.23,25.23,0,0,1,6.7,5.35,18.35,18.35,0,0,1,3.39,6,22.35,22.35,0,0,1,1,6.69,21.7,21.7,0,0,1-6.37,15.88,40.19,40.19,0,0,1-16.26,9.75"/><path class="cls-1" d="M1718.57,544.48l30.17-99.25,30.64,99.25Zm-12.14,39.94h85.28l14.57,47.18h44l-69.19-226.45h-63.85L1648.05,631.6h44Z"/><path class="cls-1" d="M2023.84,549.82A69.32,69.32,0,0,1,2010,575.93a41.81,41.81,0,0,1-24.15,13.83,83.92,83.92,0,0,1-13.06,1.34c-4.82.16-8.63.24-11.47.24h-29.88V445.4h29.88c2.84,0,6.65.05,11.47.15a69.47,69.47,0,0,1,13.06,1.41,42.12,42.12,0,0,1,23.76,13.38,67.43,67.43,0,0,1,14.06,25.79,113.24,113.24,0,0,1,.16,63.69m10.93-124.4q-19-15.72-46.39-19a157.43,157.43,0,0,0-16.05-1.1q-8.32-.15-11-.15H1888V631.6h73.29q2.67,0,11-.15a154.56,154.56,0,0,0,16.05-1.11q27.36-3.3,46.39-19a100.2,100.2,0,0,0,28.95-40q9.9-24.23,9.9-53t-9.9-53a100.23,100.23,0,0,0-28.95-39.94"/><path class="cls-1" d="M2260.69,450.27q14.39-9.58,35.94-9.59,23.58,0,38.53,11.41t21.23,32l43.08-11.95q-10.83-33-37.34-52.37t-65.5-19.34q-34,0-58.59,14.79a98.43,98.43,0,0,0-37.89,41.35q-13.3,26.58-13.3,61.81t13.3,61.8A98.42,98.42,0,0,0,2238,621.54q24.63,14.79,58.59,14.78,39,0,65.5-19.34t37.34-52.37l-43.08-12q-6.3,20.46-21.23,31.92t-38.53,11.49q-21.55,0-35.94-9.59t-21.62-27.05q-7.25-17.46-7.24-41t7.24-41q7.23-17.47,21.62-27.06"/><path class="cls-1" d="M2492,544.48l30.17-99.25,30.64,99.25Zm-1.31-139.34-69.2,226.46h44l14.34-47.18h85.27l14.57,47.18h44l-69.19-226.46Z"/><polygon class="cls-1" points="2617.45 405.14 2617.45 445.08 2688.85 445.08 2688.85 631.6 2731.63 631.6 2731.63 445.08 2803.03 445.08 2803.03 405.14 2617.45 405.14"/><path class="cls-2" d="M1487.41,755q18.46-12.75,46.31-12.75,32.08,0,51.83,16.75t27,45.22l18.72-4.56q-8.82-34.29-33.42-54.72t-64.1-20.45q-33.81,0-56.78,15t-34.59,41.59q-11.64,26.58-11.63,61.34t11.63,61.33q11.64,26.58,34.59,41.6t56.78,15q39.48,0,64.1-20.44t33.42-54.74l-18.72-4.56q-7.24,28.3-27,45.14t-51.83,16.82q-27.83,0-46.54-12.81t-28.08-35.39q-9.35-22.56-9-52,.15-29.41,9.51-52.06T1487.41,755"/><path class="cls-2" d="M1714.29,881.59l45.9-130.06,46.19,130.06Zm34.88-152.38L1669,955.67h19.19l20.09-56.93h104.23l20.21,56.93h19.19l-80.21-226.46Z"/><path class="cls-2" d="M2037.13,820.41a46.91,46.91,0,0,1-12.27,18,42,42,0,0,1-20.45,10c-2.51.43-5,.73-7.46,1s-4.65.31-6.53.31h-67V746.82h67q2.82,0,6.53.31a61.38,61.38,0,0,1,7.46,1.11,42.11,42.11,0,0,1,20.45,10,47.23,47.23,0,0,1,12.27,17.93,61.91,61.91,0,0,1,0,44.26m-2-77.76q-12.2-9.51-29.17-12.19a66.5,66.5,0,0,0-8.09-1c-2.58-.16-5-.23-7.17-.23h-85.4V955.67h18.1V867.44h67.3c2.21,0,4.59-.1,7.17-.31s5.26-.53,8.09-.94q17-2.69,29.17-12.19a61.87,61.87,0,0,0,18.63-23.91,81.33,81.33,0,0,0,0-63.53,61.94,61.94,0,0,0-18.63-23.91"/><rect class="cls-2" x="2132.59" y="729.21" width="18.09" height="226.46"/><polygon class="cls-2" points="2216.74 746.82 2297.88 746.82 2297.88 955.66 2315.97 955.66 2315.97 746.82 2397.12 746.82 2397.12 729.21 2216.74 729.21 2216.74 746.82"/><path class="cls-2" d="M2470.75,881.59l45.9-130.06,46.19,130.06Zm34.88-152.38-80.21,226.46h19.18l20.1-56.93h104.22l20.22,56.93h19.19l-80.22-226.46Z"/><polygon class="cls-2" points="2671.23 729.21 2671.23 955.66 2799.4 955.66 2799.4 938.05 2689.31 938.05 2689.31 729.21 2671.23 729.21"/><path class="cls-1" d="M841.43,377.67,1099.7,205.48V901.77l-294.83,245.7H404.8L110,901.77V205.48L368.25,377.67ZM1209.68,0,808.14,267.7H401.55L0,0V953.28l365,304.16h479.7l365-304.16Z"/><polygon class="cls-1" points="714.81 982.51 494.87 982.51 604.84 872.54 714.81 982.51"/><polygon class="cls-1" points="494.09 542.85 494.09 707.8 329.92 707.8 494.09 542.85"/><polygon class="cls-1" points="714.81 542.85 714.81 707.8 879.76 707.8 714.81 542.85"/></g></g></svg>